<svg width="48" height="39" viewBox="0 0 48 39" fill="none" xmlns="http://www.w3.org/2000/svg">
<path d="M17.4937 8.00854H30.4593V31.8535H17.4937V8.00854Z" fill="#BDBDBD"/>
<path d="M18.3167 19.9314C18.3167 15.0866 20.5393 10.7894 23.9556 8.00883C21.4449 5.98668 18.2756 4.76498 14.8181 4.76498C6.62681 4.76498 0 11.5476 0 19.9314C0 28.315 6.62681 35.0978 14.8179 35.0978C18.2754 35.0978 21.4447 33.8761 23.9556 31.8538C20.5393 29.1154 18.3167 24.7762 18.3167 19.9314Z" fill="#828282"/>
<path d="M47.9526 19.9314C47.9526 28.315 41.3258 35.0978 33.1347 35.0978C29.6772 35.0978 26.5079 33.8761 23.9971 31.8538C27.4546 29.0734 29.6361 24.7762 29.6361 19.9314C29.6361 15.0866 27.4133 10.7894 23.9971 8.00883C26.5077 5.98668 29.6772 4.76498 33.1347 4.76498C41.3258 4.76498 47.9528 11.5899 47.9528 19.9314H47.9526Z" fill="#E0E0E0"/>
</svg>
