<svg width="48" height="17" viewBox="0 0 48 17" fill="none" xmlns="http://www.w3.org/2000/svg">
<path d="M34.8932 1.45831C33.7777 1.01398 32.5985 0.791013 31.4113 0.799908C27.5719 0.799908 24.8603 2.91414 24.8411 5.9491C24.8171 8.17875 26.768 9.43523 28.2438 10.1802C29.7579 10.9461 30.2643 11.4288 30.2595 12.1134C30.2499 13.1548 29.05 13.627 27.9342 13.627C26.4008 13.627 25.5634 13.3935 24.2748 12.8086L23.7972 12.5646L23.2525 16.0586C24.186 16.4836 25.8681 16.8482 27.6055 16.8797C31.6872 16.8797 34.3556 14.7785 34.3868 11.5495C34.4204 9.76837 33.3646 8.4227 31.1425 7.3105C29.7915 6.58914 28.9541 6.10648 28.9541 5.37463C28.9541 4.72672 29.6715 4.03422 31.1713 4.03422C32.1695 4.00782 33.1614 4.21253 34.0821 4.63491L34.442 4.81066L34.9868 1.4347L34.8932 1.45831ZM44.8565 1.0832H41.8569C40.9235 1.0832 40.2204 1.36388 39.8124 2.3764L34.0437 16.6619H38.1255L38.9414 14.3195L43.923 14.3247C44.0406 14.873 44.4005 16.6619 44.4005 16.6619H48L44.8565 1.0832ZM19.3195 0.952048H23.2093L20.7761 16.5386H16.8911L19.3195 0.946802V0.952048ZM9.44498 9.54278L9.84812 11.7069L13.6492 1.0832H17.7693L11.6479 16.6409H7.53727L4.17777 3.46762C4.12336 3.25041 3.99558 3.06385 3.82023 2.94562C2.60937 2.26187 1.32639 1.74299 0 1.4006L0.052792 1.07271H6.31345C7.16293 1.10943 7.84682 1.4006 8.07479 2.39214L9.44258 9.55065V9.54278H9.44498ZM40.0572 11.1324L41.6074 6.77276C41.5882 6.81997 41.9265 5.87303 42.1233 5.28807L42.3896 6.63373L43.2895 11.1298H40.0548V11.1324H40.0572Z" fill="#E0E0E0"/>
</svg>
