<svg width="31" height="30" viewBox="0 0 31 30" fill="none" xmlns="http://www.w3.org/2000/svg">
<path fill-rule="evenodd" clip-rule="evenodd" d="M30.1231 15.159C30.1239 14.1515 30.0345 13.1441 29.8558 12.1499L15.4735 12.1482V17.8544H23.7118C23.3714 19.698 22.2698 21.3263 20.6626 22.361L20.6626 26.0634H25.578C28.6138 23.2178 30.2655 19.255 30.1231 15.159V15.159Z" fill="#4285F4"/>
<path fill-rule="evenodd" clip-rule="evenodd" d="M15.4736 29.6369C19.1894 29.7382 22.8051 28.4587 25.5834 26.0593L20.6663 22.3578C18.2682 23.848 15.2974 24.1825 12.612 23.2648C9.92655 22.3471 7.82563 20.2793 6.91592 17.6587H1.84363V21.472C4.43321 26.4778 9.70691 29.6369 15.4736 29.6369V29.6369Z" fill="#34A853"/>
<path fill-rule="evenodd" clip-rule="evenodd" d="M6.90971 17.6587C6.27087 15.8186 6.27087 13.8256 6.90971 11.9855V8.1687H1.84362C-0.319583 12.3554 -0.319583 17.2889 1.84362 21.4755L6.90971 17.6587Z" fill="#FBBC04"/>
<path fill-rule="evenodd" clip-rule="evenodd" d="M15.4736 5.86492C17.6484 5.83075 19.7498 6.62854 21.3246 8.08617L25.6789 3.85599C22.9173 1.33861 19.2601 -0.0427938 15.4736 0.00100505C9.7062 0.000105794 4.43174 3.16034 1.84363 8.16764L6.90966 11.9809C8.1197 8.36907 11.5641 5.90782 15.4736 5.86143V5.86492Z" fill="#EA4335"/>
</svg>
