<svg width="407" height="67" viewBox="0 0 407 67" fill="none" xmlns="http://www.w3.org/2000/svg">
<path fill-rule="evenodd" clip-rule="evenodd" d="M1 23.5333V12.2667C1 9.15546 2.13222 6.49988 4.39666 4.29993C6.6611 2.09998 9.39452 1 12.5969 1H394.403C397.605 1 400.339 2.09998 402.603 4.29993C404.868 6.49988 406 9.15546 406 12.2667V54.7333C406 57.8445 404.868 60.5001 402.603 62.7001C400.339 64.9 397.605 66 394.403 66H12.5969C9.39452 66 6.6611 64.9 4.39666 62.7001C2.13222 60.5001 1 57.8445 1 54.7333V23.5333Z" stroke="white" stroke-width="2"/>
<path d="M90.7141 30.513C90.7141 31.535 90.3921 32.347 89.7481 32.949C89.1041 33.537 88.2431 33.915 87.1651 34.083V34.167C88.4251 34.335 89.3841 34.727 90.0421 35.343C90.7001 35.959 91.0291 36.764 91.0291 37.758C91.0291 38.64 90.8051 39.417 90.3571 40.089C89.9091 40.747 89.2371 41.265 88.3411 41.643C87.4451 42.021 86.3251 42.21 84.9811 42.21C84.1691 42.21 83.3921 42.147 82.6501 42.021C81.9221 41.909 81.2431 41.699 80.6131 41.391V39.669C81.0471 39.879 81.5091 40.061 81.9991 40.215C82.5031 40.355 83.0071 40.467 83.5111 40.551C84.0151 40.621 84.4981 40.656 84.9601 40.656C86.3041 40.656 87.3191 40.404 88.0051 39.9C88.7051 39.396 89.0551 38.682 89.0551 37.758C89.0551 36.806 88.6491 36.113 87.8371 35.679C87.0251 35.245 85.8911 35.028 84.4351 35.028H82.2931V33.453H84.3301C85.3241 33.453 86.1431 33.341 86.7871 33.117C87.4451 32.893 87.9351 32.578 88.2571 32.172C88.5931 31.752 88.7611 31.262 88.7611 30.702C88.7611 29.946 88.4811 29.365 87.9211 28.959C87.3611 28.553 86.6331 28.35 85.7371 28.35C84.7991 28.35 84.0151 28.469 83.3851 28.707C82.7691 28.945 82.1671 29.253 81.5791 29.631L80.6761 28.35C81.0681 28.056 81.5161 27.797 82.0201 27.573C82.5381 27.335 83.1121 27.146 83.7421 27.006C84.3721 26.866 85.0441 26.796 85.7581 26.796C86.8361 26.796 87.7391 26.957 88.4671 27.279C89.2091 27.601 89.7691 28.042 90.1471 28.602C90.5251 29.148 90.7141 29.785 90.7141 30.513ZM98.2088 30.555C99.5808 30.555 100.596 30.856 101.254 31.458C101.912 32.06 102.241 33.019 102.241 34.335V42H100.897L100.54 40.404H100.456C100.134 40.81 99.7978 41.153 99.4478 41.433C99.1118 41.699 98.7198 41.895 98.2718 42.021C97.8378 42.147 97.3058 42.21 96.6758 42.21C96.0038 42.21 95.3948 42.091 94.8488 41.853C94.3168 41.615 93.8968 41.251 93.5888 40.761C93.2808 40.257 93.1268 39.627 93.1268 38.871C93.1268 37.751 93.5678 36.89 94.4498 36.288C95.3318 35.672 96.6898 35.336 98.5238 35.28L100.435 35.217V34.545C100.435 33.607 100.232 32.956 99.8258 32.592C99.4198 32.228 98.8458 32.046 98.1038 32.046C97.5158 32.046 96.9558 32.137 96.4238 32.319C95.8918 32.487 95.3948 32.683 94.9328 32.907L94.3658 31.521C94.8558 31.255 95.4368 31.031 96.1088 30.849C96.7808 30.653 97.4808 30.555 98.2088 30.555ZM98.7548 36.561C97.3548 36.617 96.3818 36.841 95.8358 37.233C95.3038 37.625 95.0378 38.178 95.0378 38.892C95.0378 39.522 95.2268 39.984 95.6048 40.278C95.9968 40.572 96.4938 40.719 97.0958 40.719C98.0478 40.719 98.8388 40.46 99.4688 39.942C100.099 39.41 100.414 38.598 100.414 37.506V36.498L98.7548 36.561ZM111.072 30.534C112.458 30.534 113.571 31.017 114.411 31.983C115.265 32.949 115.692 34.405 115.692 36.351C115.692 37.625 115.496 38.703 115.104 39.585C114.726 40.453 114.187 41.111 113.487 41.559C112.801 41.993 111.989 42.21 111.051 42.21C110.477 42.21 109.966 42.133 109.518 41.979C109.07 41.825 108.685 41.629 108.363 41.391C108.055 41.139 107.789 40.866 107.565 40.572H107.439C107.467 40.81 107.495 41.111 107.523 41.475C107.551 41.839 107.565 42.154 107.565 42.42V47.04H105.717V30.744H107.229L107.481 32.277H107.565C107.789 31.955 108.055 31.661 108.363 31.395C108.685 31.129 109.063 30.919 109.497 30.765C109.945 30.611 110.47 30.534 111.072 30.534ZM110.736 32.088C109.98 32.088 109.371 32.235 108.909 32.529C108.447 32.809 108.111 33.236 107.901 33.81C107.691 34.384 107.579 35.112 107.565 35.994V36.351C107.565 37.275 107.663 38.059 107.859 38.703C108.055 39.347 108.384 39.837 108.846 40.173C109.322 40.509 109.966 40.677 110.778 40.677C111.464 40.677 112.024 40.488 112.458 40.11C112.906 39.732 113.235 39.221 113.445 38.577C113.669 37.919 113.781 37.17 113.781 36.33C113.781 35.042 113.529 34.013 113.025 33.243C112.535 32.473 111.772 32.088 110.736 32.088ZM122.984 30.534C123.95 30.534 124.776 30.744 125.462 31.164C126.162 31.584 126.694 32.179 127.058 32.949C127.436 33.705 127.625 34.594 127.625 35.616V36.729H119.918C119.946 38.003 120.268 38.976 120.884 39.648C121.514 40.306 122.389 40.635 123.509 40.635C124.223 40.635 124.853 40.572 125.399 40.446C125.959 40.306 126.533 40.11 127.121 39.858V41.475C126.547 41.727 125.98 41.909 125.42 42.021C124.86 42.147 124.195 42.21 123.425 42.21C122.361 42.21 121.416 41.993 120.59 41.559C119.778 41.125 119.141 40.481 118.679 39.627C118.231 38.759 118.007 37.702 118.007 36.456C118.007 35.224 118.21 34.167 118.616 33.285C119.036 32.403 119.617 31.724 120.359 31.248C121.115 30.772 121.99 30.534 122.984 30.534ZM122.963 32.046C122.081 32.046 121.381 32.333 120.863 32.907C120.359 33.467 120.058 34.251 119.96 35.259H125.693C125.693 34.615 125.595 34.055 125.399 33.579C125.203 33.103 124.902 32.732 124.496 32.466C124.104 32.186 123.593 32.046 122.963 32.046ZM137.358 30.744V32.298H132.339V42H130.491V30.744H137.358ZM141.319 37.611C141.319 37.737 141.312 37.919 141.298 38.157C141.298 38.381 141.291 38.626 141.277 38.892C141.263 39.144 141.249 39.389 141.235 39.627C141.221 39.851 141.207 40.033 141.193 40.173L147.22 30.744H149.488V42H147.766V35.364C147.766 35.14 147.766 34.846 147.766 34.482C147.78 34.118 147.794 33.761 147.808 33.411C147.822 33.047 147.836 32.774 147.85 32.592L141.865 42H139.576V30.744H141.319V37.611ZM157.585 42.21C156.591 42.21 155.702 42.007 154.918 41.601C154.148 41.195 153.539 40.565 153.091 39.711C152.657 38.857 152.44 37.765 152.44 36.435C152.44 35.049 152.671 33.922 153.133 33.054C153.595 32.186 154.218 31.549 155.002 31.143C155.8 30.737 156.703 30.534 157.711 30.534C158.285 30.534 158.838 30.597 159.37 30.723C159.902 30.835 160.336 30.975 160.672 31.143L160.105 32.676C159.769 32.55 159.377 32.431 158.929 32.319C158.481 32.207 158.061 32.151 157.669 32.151C156.913 32.151 156.29 32.312 155.8 32.634C155.31 32.956 154.946 33.432 154.708 34.062C154.47 34.692 154.351 35.476 154.351 36.414C154.351 37.31 154.47 38.073 154.708 38.703C154.946 39.333 155.303 39.809 155.779 40.131C156.255 40.453 156.85 40.614 157.564 40.614C158.18 40.614 158.719 40.551 159.181 40.425C159.657 40.299 160.091 40.145 160.483 39.963V41.601C160.105 41.797 159.685 41.944 159.223 42.042C158.775 42.154 158.229 42.21 157.585 42.21ZM170.93 32.298H167.255V42H165.428V32.298H161.795V30.744H170.93V32.298ZM178.502 30.534C179.888 30.534 181.001 31.017 181.841 31.983C182.695 32.949 183.122 34.405 183.122 36.351C183.122 37.625 182.926 38.703 182.534 39.585C182.156 40.453 181.617 41.111 180.917 41.559C180.231 41.993 179.419 42.21 178.481 42.21C177.907 42.21 177.396 42.133 176.948 41.979C176.5 41.825 176.115 41.629 175.793 41.391C175.485 41.139 175.219 40.866 174.995 40.572H174.869C174.897 40.81 174.925 41.111 174.953 41.475C174.981 41.839 174.995 42.154 174.995 42.42V47.04H173.147V30.744H174.659L174.911 32.277H174.995C175.219 31.955 175.485 31.661 175.793 31.395C176.115 31.129 176.493 30.919 176.927 30.765C177.375 30.611 177.9 30.534 178.502 30.534ZM178.166 32.088C177.41 32.088 176.801 32.235 176.339 32.529C175.877 32.809 175.541 33.236 175.331 33.81C175.121 34.384 175.009 35.112 174.995 35.994V36.351C174.995 37.275 175.093 38.059 175.289 38.703C175.485 39.347 175.814 39.837 176.276 40.173C176.752 40.509 177.396 40.677 178.208 40.677C178.894 40.677 179.454 40.488 179.888 40.11C180.336 39.732 180.665 39.221 180.875 38.577C181.099 37.919 181.211 37.17 181.211 36.33C181.211 35.042 180.959 34.013 180.455 33.243C179.965 32.473 179.202 32.088 178.166 32.088ZM187.81 37.611C187.81 37.737 187.803 37.919 187.789 38.157C187.789 38.381 187.782 38.626 187.768 38.892C187.754 39.144 187.74 39.389 187.726 39.627C187.712 39.851 187.698 40.033 187.684 40.173L193.711 30.744H195.979V42H194.257V35.364C194.257 35.14 194.257 34.846 194.257 34.482C194.271 34.118 194.285 33.761 194.299 33.411C194.313 33.047 194.327 32.774 194.341 32.592L188.356 42H186.067V30.744H187.81V37.611ZM204.916 30.534C206.302 30.534 207.415 31.017 208.255 31.983C209.109 32.949 209.536 34.405 209.536 36.351C209.536 37.625 209.34 38.703 208.948 39.585C208.57 40.453 208.031 41.111 207.331 41.559C206.645 41.993 205.833 42.21 204.895 42.21C204.321 42.21 203.81 42.133 203.362 41.979C202.914 41.825 202.529 41.629 202.207 41.391C201.899 41.139 201.633 40.866 201.409 40.572H201.283C201.311 40.81 201.339 41.111 201.367 41.475C201.395 41.839 201.409 42.154 201.409 42.42V47.04H199.561V30.744H201.073L201.325 32.277H201.409C201.633 31.955 201.899 31.661 202.207 31.395C202.529 31.129 202.907 30.919 203.341 30.765C203.789 30.611 204.314 30.534 204.916 30.534ZM204.58 32.088C203.824 32.088 203.215 32.235 202.753 32.529C202.291 32.809 201.955 33.236 201.745 33.81C201.535 34.384 201.423 35.112 201.409 35.994V36.351C201.409 37.275 201.507 38.059 201.703 38.703C201.899 39.347 202.228 39.837 202.69 40.173C203.166 40.509 203.81 40.677 204.622 40.677C205.308 40.677 205.868 40.488 206.302 40.11C206.75 39.732 207.079 39.221 207.289 38.577C207.513 37.919 207.625 37.17 207.625 36.33C207.625 35.042 207.373 34.013 206.869 33.243C206.379 32.473 205.616 32.088 204.58 32.088ZM210.512 30.744H212.486L214.922 37.149C215.062 37.527 215.188 37.891 215.3 38.241C215.426 38.591 215.538 38.934 215.636 39.27C215.734 39.592 215.811 39.907 215.867 40.215H215.951C216.035 39.865 216.168 39.41 216.35 38.85C216.532 38.276 216.721 37.702 216.917 37.128L219.206 30.744H221.201L216.35 43.554C216.084 44.254 215.769 44.863 215.405 45.381C215.055 45.913 214.621 46.319 214.103 46.599C213.599 46.893 212.983 47.04 212.255 47.04C211.919 47.04 211.625 47.019 211.373 46.977C211.121 46.949 210.904 46.914 210.722 46.872V45.402C210.876 45.43 211.058 45.458 211.268 45.486C211.492 45.514 211.723 45.528 211.961 45.528C212.395 45.528 212.766 45.444 213.074 45.276C213.396 45.122 213.669 44.891 213.893 44.583C214.117 44.289 214.306 43.939 214.46 43.533L215.048 42.042L210.512 30.744ZM232.095 26.082C232.039 26.782 231.864 27.37 231.57 27.846C231.29 28.322 230.87 28.679 230.31 28.917C229.75 29.155 229.022 29.274 228.126 29.274C227.216 29.274 226.481 29.155 225.921 28.917C225.375 28.679 224.976 28.329 224.724 27.867C224.472 27.391 224.318 26.796 224.262 26.082H225.984C226.054 26.838 226.25 27.349 226.572 27.615C226.908 27.867 227.44 27.993 228.168 27.993C228.812 27.993 229.316 27.86 229.68 27.594C230.058 27.314 230.282 26.81 230.352 26.082H232.095ZM224.724 37.611C224.724 37.737 224.717 37.919 224.703 38.157C224.703 38.381 224.696 38.626 224.682 38.892C224.668 39.144 224.654 39.389 224.64 39.627C224.626 39.851 224.612 40.033 224.598 40.173L230.625 30.744H232.893V42H231.171V35.364C231.171 35.14 231.171 34.846 231.171 34.482C231.185 34.118 231.199 33.761 231.213 33.411C231.227 33.047 231.241 32.774 231.255 32.592L225.27 42H222.981V30.744H224.724V37.611ZM244.245 32.298H240.57V42H238.743V32.298H235.11V30.744H244.245V32.298ZM250.604 30.534C251.57 30.534 252.396 30.744 253.082 31.164C253.782 31.584 254.314 32.179 254.678 32.949C255.056 33.705 255.245 34.594 255.245 35.616V36.729H247.538C247.566 38.003 247.888 38.976 248.504 39.648C249.134 40.306 250.009 40.635 251.129 40.635C251.843 40.635 252.473 40.572 253.019 40.446C253.579 40.306 254.153 40.11 254.741 39.858V41.475C254.167 41.727 253.6 41.909 253.04 42.021C252.48 42.147 251.815 42.21 251.045 42.21C249.981 42.21 249.036 41.993 248.21 41.559C247.398 41.125 246.761 40.481 246.299 39.627C245.851 38.759 245.627 37.702 245.627 36.456C245.627 35.224 245.83 34.167 246.236 33.285C246.656 32.403 247.237 31.724 247.979 31.248C248.735 30.772 249.61 30.534 250.604 30.534ZM250.583 32.046C249.701 32.046 249.001 32.333 248.483 32.907C247.979 33.467 247.678 34.251 247.58 35.259H253.313C253.313 34.615 253.215 34.055 253.019 33.579C252.823 33.103 252.522 32.732 252.116 32.466C251.724 32.186 251.213 32.046 250.583 32.046ZM262.626 42.21C261.632 42.21 260.743 42.007 259.959 41.601C259.189 41.195 258.58 40.565 258.132 39.711C257.698 38.857 257.481 37.765 257.481 36.435C257.481 35.049 257.712 33.922 258.174 33.054C258.636 32.186 259.259 31.549 260.043 31.143C260.841 30.737 261.744 30.534 262.752 30.534C263.326 30.534 263.879 30.597 264.411 30.723C264.943 30.835 265.377 30.975 265.713 31.143L265.146 32.676C264.81 32.55 264.418 32.431 263.97 32.319C263.522 32.207 263.102 32.151 262.71 32.151C261.954 32.151 261.331 32.312 260.841 32.634C260.351 32.956 259.987 33.432 259.749 34.062C259.511 34.692 259.392 35.476 259.392 36.414C259.392 37.31 259.511 38.073 259.749 38.703C259.987 39.333 260.344 39.809 260.82 40.131C261.296 40.453 261.891 40.614 262.605 40.614C263.221 40.614 263.76 40.551 264.222 40.425C264.698 40.299 265.132 40.145 265.524 39.963V41.601C265.146 41.797 264.726 41.944 264.264 42.042C263.816 42.154 263.27 42.21 262.626 42.21ZM273.388 35.364C274.368 35.364 275.18 35.483 275.824 35.721C276.468 35.959 276.951 36.316 277.273 36.792C277.609 37.254 277.777 37.842 277.777 38.556C277.777 39.256 277.616 39.865 277.294 40.383C276.986 40.901 276.503 41.3 275.845 41.58C275.187 41.86 274.34 42 273.304 42H268.201V30.744H270.049V35.364H273.388ZM275.929 38.661C275.929 37.975 275.684 37.513 275.194 37.275C274.718 37.023 274.046 36.897 273.178 36.897H270.049V40.509H273.22C274.004 40.509 274.648 40.369 275.152 40.089C275.67 39.809 275.929 39.333 275.929 38.661ZM295.319 33.579C295.319 34.279 295.109 34.825 294.689 35.217C294.269 35.609 293.73 35.875 293.072 36.015V36.099C293.772 36.197 294.381 36.449 294.899 36.855C295.417 37.247 295.676 37.863 295.676 38.703C295.676 39.179 295.585 39.62 295.403 40.026C295.235 40.432 294.969 40.782 294.605 41.076C294.241 41.37 293.772 41.601 293.198 41.769C292.624 41.923 291.931 42 291.119 42H286.268V30.744H291.098C291.896 30.744 292.61 30.835 293.24 31.017C293.884 31.185 294.388 31.479 294.752 31.899C295.13 32.305 295.319 32.865 295.319 33.579ZM293.765 38.703C293.765 38.059 293.52 37.597 293.03 37.317C292.54 37.037 291.819 36.897 290.867 36.897H288.116V40.509H290.909C291.833 40.509 292.54 40.376 293.03 40.11C293.52 39.83 293.765 39.361 293.765 38.703ZM293.45 33.81C293.45 33.278 293.254 32.893 292.862 32.655C292.484 32.403 291.861 32.277 290.993 32.277H288.116V35.364H290.657C291.567 35.364 292.26 35.238 292.736 34.986C293.212 34.734 293.45 34.342 293.45 33.81ZM314.886 31.605C314.48 30.751 313.892 30.093 313.122 29.631C312.352 29.155 311.456 28.917 310.434 28.917C309.412 28.917 308.488 29.155 307.662 29.631C306.85 30.093 306.206 30.765 305.73 31.647C305.268 32.515 305.037 33.523 305.037 34.671C305.037 35.819 305.268 36.827 305.73 37.695C306.206 38.563 306.85 39.235 307.662 39.711C308.488 40.173 309.412 40.404 310.434 40.404C311.862 40.404 313.038 39.977 313.962 39.123C314.886 38.269 315.425 37.114 315.579 35.658H309.741V34.104H317.616V35.574C317.504 36.778 317.126 37.884 316.482 38.892C315.838 39.886 314.991 40.677 313.941 41.265C312.891 41.839 311.722 42.126 310.434 42.126C309.076 42.126 307.837 41.811 306.717 41.181C305.597 40.537 304.708 39.648 304.05 38.514C303.406 37.38 303.084 36.099 303.084 34.671C303.084 33.243 303.406 31.962 304.05 30.828C304.708 29.68 305.597 28.791 306.717 28.161C307.837 27.517 309.076 27.195 310.434 27.195C311.988 27.195 313.36 27.58 314.55 28.35C315.754 29.12 316.629 30.205 317.175 31.605H314.886ZM325.162 42.189C324.084 42.189 323.104 41.944 322.222 41.454C321.354 40.964 320.668 40.271 320.164 39.375C319.674 38.465 319.429 37.415 319.429 36.225C319.429 35.049 319.681 34.013 320.185 33.117C320.703 32.207 321.403 31.514 322.285 31.038C323.167 30.548 324.154 30.303 325.246 30.303C326.338 30.303 327.325 30.548 328.207 31.038C329.089 31.514 329.782 32.2 330.286 33.096C330.804 33.992 331.063 35.035 331.063 36.225C331.063 37.415 330.797 38.465 330.265 39.375C329.747 40.271 329.04 40.964 328.144 41.454C327.248 41.944 326.254 42.189 325.162 42.189ZM325.162 40.509C325.848 40.509 326.492 40.348 327.094 40.026C327.696 39.704 328.179 39.221 328.543 38.577C328.921 37.933 329.11 37.149 329.11 36.225C329.11 35.301 328.928 34.517 328.564 33.873C328.2 33.229 327.724 32.753 327.136 32.445C326.548 32.123 325.911 31.962 325.225 31.962C324.525 31.962 323.881 32.123 323.293 32.445C322.719 32.753 322.257 33.229 321.907 33.873C321.557 34.517 321.382 35.301 321.382 36.225C321.382 37.163 321.55 37.954 321.886 38.598C322.236 39.242 322.698 39.725 323.272 40.047C323.846 40.355 324.476 40.509 325.162 40.509ZM338.595 42.189C337.517 42.189 336.537 41.944 335.655 41.454C334.787 40.964 334.101 40.271 333.597 39.375C333.107 38.465 332.862 37.415 332.862 36.225C332.862 35.049 333.114 34.013 333.618 33.117C334.136 32.207 334.836 31.514 335.718 31.038C336.6 30.548 337.587 30.303 338.679 30.303C339.771 30.303 340.758 30.548 341.64 31.038C342.522 31.514 343.215 32.2 343.719 33.096C344.237 33.992 344.496 35.035 344.496 36.225C344.496 37.415 344.23 38.465 343.698 39.375C343.18 40.271 342.473 40.964 341.577 41.454C340.681 41.944 339.687 42.189 338.595 42.189ZM338.595 40.509C339.281 40.509 339.925 40.348 340.527 40.026C341.129 39.704 341.612 39.221 341.976 38.577C342.354 37.933 342.543 37.149 342.543 36.225C342.543 35.301 342.361 34.517 341.997 33.873C341.633 33.229 341.157 32.753 340.569 32.445C339.981 32.123 339.344 31.962 338.658 31.962C337.958 31.962 337.314 32.123 336.726 32.445C336.152 32.753 335.69 33.229 335.34 33.873C334.99 34.517 334.815 35.301 334.815 36.225C334.815 37.163 334.983 37.954 335.319 38.598C335.669 39.242 336.131 39.725 336.705 40.047C337.279 40.355 337.909 40.509 338.595 40.509ZM351.754 30.303C352.748 30.303 353.616 30.52 354.358 30.954C355.114 31.388 355.674 31.934 356.038 32.592V30.492H357.97V42.252C357.97 43.302 357.746 44.233 357.298 45.045C356.85 45.871 356.206 46.515 355.366 46.977C354.54 47.439 353.574 47.67 352.468 47.67C350.956 47.67 349.696 47.313 348.688 46.599C347.68 45.885 347.085 44.912 346.903 43.68H348.793C349.003 44.38 349.437 44.94 350.095 45.36C350.753 45.794 351.544 46.011 352.468 46.011C353.518 46.011 354.372 45.682 355.03 45.024C355.702 44.366 356.038 43.442 356.038 42.252V39.837C355.66 40.509 355.1 41.069 354.358 41.517C353.616 41.965 352.748 42.189 351.754 42.189C350.732 42.189 349.801 41.937 348.961 41.433C348.135 40.929 347.484 40.222 347.008 39.312C346.532 38.402 346.294 37.366 346.294 36.204C346.294 35.028 346.532 33.999 347.008 33.117C347.484 32.221 348.135 31.528 348.961 31.038C349.801 30.548 350.732 30.303 351.754 30.303ZM356.038 36.225C356.038 35.357 355.863 34.601 355.513 33.957C355.163 33.313 354.687 32.823 354.085 32.487C353.497 32.137 352.846 31.962 352.132 31.962C351.418 31.962 350.767 32.13 350.179 32.466C349.591 32.802 349.122 33.292 348.772 33.936C348.422 34.58 348.247 35.336 348.247 36.204C348.247 37.086 348.422 37.856 348.772 38.514C349.122 39.158 349.591 39.655 350.179 40.005C350.767 40.341 351.418 40.509 352.132 40.509C352.846 40.509 353.497 40.341 354.085 40.005C354.687 39.655 355.163 39.158 355.513 38.514C355.863 37.856 356.038 37.093 356.038 36.225ZM363.111 26.46V42H361.2V26.46H363.111ZM376.868 35.805C376.868 36.169 376.847 36.554 376.805 36.96H367.607C367.677 38.094 368.062 38.983 368.762 39.627C369.476 40.257 370.337 40.572 371.345 40.572C372.171 40.572 372.857 40.383 373.403 40.005C373.963 39.613 374.355 39.095 374.579 38.451H376.637C376.329 39.557 375.713 40.46 374.789 41.16C373.865 41.846 372.717 42.189 371.345 42.189C370.253 42.189 369.273 41.944 368.405 41.454C367.551 40.964 366.879 40.271 366.389 39.375C365.899 38.465 365.654 37.415 365.654 36.225C365.654 35.035 365.892 33.992 366.368 33.096C366.844 32.2 367.509 31.514 368.363 31.038C369.231 30.548 370.225 30.303 371.345 30.303C372.437 30.303 373.403 30.541 374.243 31.017C375.083 31.493 375.727 32.151 376.175 32.991C376.637 33.817 376.868 34.755 376.868 35.805ZM374.894 35.406C374.894 34.678 374.733 34.055 374.411 33.537C374.089 33.005 373.648 32.606 373.088 32.34C372.542 32.06 371.933 31.92 371.261 31.92C370.295 31.92 369.469 32.228 368.783 32.844C368.111 33.46 367.726 34.314 367.628 35.406H374.894Z" fill="white"/>
<path fill-rule="evenodd" clip-rule="evenodd" d="M74.1231 33.159C74.1239 32.1515 74.0345 31.1441 73.8558 30.1499L59.4735 30.1482V35.8544H67.7118C67.3714 37.698 66.2698 39.3263 64.6626 40.361L64.6626 44.0634H69.578C72.6138 41.2178 74.2655 37.255 74.1231 33.159V33.159Z" fill="#4285F4"/>
<path fill-rule="evenodd" clip-rule="evenodd" d="M59.4736 47.6369C63.1894 47.7382 66.8051 46.4587 69.5834 44.0593L64.6663 40.3578C62.2682 41.848 59.2974 42.1825 56.612 41.2648C53.9265 40.3471 51.8256 38.2793 50.9159 35.6587H45.8436V39.472C48.4332 44.4778 53.7069 47.6369 59.4736 47.6369V47.6369Z" fill="#34A853"/>
<path fill-rule="evenodd" clip-rule="evenodd" d="M50.9097 35.6587C50.2709 33.8186 50.2709 31.8256 50.9097 29.9855V26.1687H45.8436C43.6804 30.3554 43.6804 35.2889 45.8436 39.4755L50.9097 35.6587Z" fill="#FBBC04"/>
<path fill-rule="evenodd" clip-rule="evenodd" d="M59.4736 23.8649C61.6484 23.8307 63.7498 24.6285 65.3246 26.0862L69.6789 21.856C66.9173 19.3386 63.2601 17.9572 59.4736 18.001C53.7062 18.0001 48.4317 21.1603 45.8436 26.1676L50.9097 29.9809C52.1197 26.3691 55.5641 23.9078 59.4736 23.8614V23.8649Z" fill="#EA4335"/>
</svg>
